<?xml version="1.0" encoding="UTF-8" standalone="no"?>
<svg
   width="22"
   height="22"
   viewBox="0 0 22 22"
   fill="none"
   version="1.1"
   id="svg1"
   sodipodi:docname="search.svg"
   inkscape:version="1.3.2 (091e20e, 2023-11-25, custom)"
   xmlns:inkscape="http://www.inkscape.org/namespaces/inkscape"
   xmlns:sodipodi="http://sodipodi.sourceforge.net/DTD/sodipodi-0.dtd"
   xmlns="http://www.w3.org/2000/svg"
   xmlns:svg="http://www.w3.org/2000/svg">
  <defs
     id="defs1" />
  <sodipodi:namedview
     id="namedview1"
     pagecolor="#ffffff"
     bordercolor="#666666"
     borderopacity="1.0"
     inkscape:showpageshadow="2"
     inkscape:pageopacity="0.0"
     inkscape:pagecheckerboard="0"
     inkscape:deskcolor="#d1d1d1"
     inkscape:zoom="25.35942"
     inkscape:cx="11.041262"
     inkscape:cy="13.781861"
     inkscape:window-width="1920"
     inkscape:window-height="1027"
     inkscape:window-x="-8"
     inkscape:window-y="-8"
     inkscape:window-maximized="1"
     inkscape:current-layer="svg1" />
  <path
     d="m 20.7758,20.5167 c -0.0153,0.2066 -0.1146,0.3921 -0.2507,0.5272 l 0.2507,-0.5272 C 20.7916,20.3034 20.7157,20.0875 20.62535,19.99885 20.6252,19.9986 16.4842,15.8485 16.4842,15.8485 c 1.4221,-1.658 2.2052,-3.7731 2.2024,-5.962805 -2e-4,-5.076495 -4.128,-9.204222 -9.20439,-9.204222 -5.07648,0 -9.204378,4.127907 -9.204378,9.204387 0,5.07644 4.127898,9.20434 9.204378,9.20434 2.20659,0 4.25209,-0.7841 5.84639,-2.0932 l 4.0561,4.0561 c 0.1792,0.1792 0.3966,0.2544 0.6106,0.2391 0.2072,-0.0149 0.3936,-0.1131 0.5298,-0.2483 M 1.90163,9.88586 c 0,-4.1814 3.40884,-7.57946 7.57946,-7.57946 4.18161,0 7.57951,3.39782 7.57951,7.57946 0,4.18164 -3.3979,7.57944 -7.57951,7.57944 -4.17062,0 -7.57946,-3.398 -7.57946,-7.57944 z"
     fill="black"
     stroke="#000000"
     stroke-width="0.5"
     id="path1"
     style="opacity:1;fill:#000000;fill-opacity:1"
     sodipodi:nodetypes="ccccccssscsccsssss" />
</svg>
